<svg width="150" height="150" viewBox="0 0 150 150" fill="none" xmlns="http://www.w3.org/2000/svg">
<mask id="path-1-inside-1_5_43" fill="white">
<path d="M124 10L146 34.5L124 59"/>
</mask>
<path d="M124 10L146 34.5L124 59" fill="white" stroke="white" stroke-width="12" mask="url(#path-1-inside-1_5_43)"/>
<mask id="path-2-inside-2_5_43" fill="white">
<path d="M124 91L146 115.5L124 140"/>
</mask>
<path d="M124 91L146 115.5L124 140" fill="white" stroke="white" stroke-width="12" mask="url(#path-2-inside-2_5_43)"/>
<path d="M75.4635 95.2879L73.7513 92.8244L68.8244 96.2487L70.5365 98.7121L75.4635 95.2879ZM82.94 111.302L85.4086 109.597L85.4034 109.59L82.94 111.302ZM91.3673 116L91.3606 119H91.3673V116ZM70.5365 98.7121L80.4765 113.014L85.4034 109.59L75.4635 95.2879L70.5365 98.7121ZM80.4713 113.007C81.7253 114.823 83.3434 116.328 85.2294 117.379L88.1509 112.139C87.1194 111.564 86.1742 110.706 85.4086 109.597L80.4713 113.007ZM85.2294 117.379C87.1184 118.432 89.2154 118.995 91.3606 119L91.3741 113C90.2794 112.998 89.1794 112.712 88.1509 112.139L85.2294 117.379ZM91.3673 119H133V113H91.3673V119Z" fill="white"/>
<path d="M3 34H23.0274C24.6477 34.0036 26.2464 34.4243 27.7054 35.2309C29.1644 36.0375 30.4463 37.2094 31.4563 38.6598L45 58" stroke="white" stroke-width="6" stroke-linecap="square" stroke-linejoin="round"/>
<path d="M3 113H0V119H3V113ZM26.6889 116L26.6889 119L26.6956 119L26.6889 116ZM35.1389 111.367L32.687 109.638L32.6836 109.643L35.1389 111.367ZM86.4167 38.633L88.8686 40.3616L88.8719 40.3568L86.4167 38.633ZM94.8667 34L94.8667 31L94.86 31L94.8667 34ZM133 37C134.657 37 136 35.6569 136 34C136 32.3431 134.657 31 133 31V37ZM3 119H26.6889V113H3V119ZM26.6956 119C28.8357 118.995 30.9305 118.443 32.8209 117.407L29.9363 112.146C28.9014 112.713 27.7907 112.998 26.6822 113L26.6956 119ZM32.8209 117.407C34.7088 116.372 36.3331 114.887 37.5942 113.091L32.6836 109.643C31.9197 110.731 30.9738 111.577 29.9363 112.146L32.8209 117.407ZM37.5908 113.096L88.8686 40.3616L83.9647 36.9044L32.687 109.638L37.5908 113.096ZM88.8719 40.3568C89.6358 39.2688 90.5818 38.4232 91.6192 37.8544L88.7346 32.5933C86.8467 33.6284 85.2224 35.113 83.9614 36.9092L88.8719 40.3568ZM91.6192 37.8544C92.6541 37.2869 93.7649 37.0025 94.8733 37L94.86 31C92.7199 31.0048 90.625 31.5568 88.7346 32.5933L91.6192 37.8544ZM94.8667 37H133V31H94.8667V37Z" fill="white"/>
</svg>
