<svg xmlns="http://www.w3.org/2000/svg" version="1.1" xmlns:xlink="http://www.w3.org/1999/xlink" xmlns:svgjs="http://svgjs.com/svgjs" width="175.692mm" height="165.374mm"><svg xmlns="http://www.w3.org/2000/svg" width="175.692mm" height="165.374mm" viewBox="0 0 498.025 468.776"><path d="M285.332,306.187C267.7,317.542,247.8,313.6,231.484,299.8l-28.12-40.294c-12.016-34.06,8.918-58.065,21.662-65.628,21.541-12.753,11.2-22.956,2.2-24.423-12.168-1.969-28.778-.116-45.319,14.18-30.279,26.137-17.092,64.8-80.935,76.616C31.809,273.058-.215,312.747,7.781,362.188,14,400.665,44.14,428.719,55.017,439.468s39.295,40.5,78.253,46.645c50.083,7.895,89.422-23.888,103.235-92.032,9.779-48.205,55.7-30.051,72.663-66.069C320.659,303.628,300.507,296.422,285.332,306.187Z" transform="translate(-6.58 -18.518)" style="fill:#231815"></path><rect x="144.775" y="184.359" width="312.349" height="44.516" transform="translate(-66.468 243.392) rotate(-43.183)" style="fill:#705a37"></rect><path d="M499.716,25.7c-9.663-11.279-29.348-7.809-39.359.4L422.891,56.781c-6.156,5.049-15.71,12.874-22.157,18.154a8.663,8.663,0,0,0-1.091,12.346c3.317,3.87,7.83,9.133,12.909,15.054,21.789,25.434,24.419,21.283,35.2-2.349,1.831-4.014,11.191-28.149,12.934-31.232,8.782-15.533,10.572-3.921,32.27-8.269C506.816,55.464,507.289,33.5,499.716,25.7Z" transform="translate(-6.58 -18.518)" style="fill:#1e1c1e"></path></svg><style>@media (prefers-color-scheme: light) { :root { filter: contrast(1) brightness(0.1); } }
@media (prefers-color-scheme: dark) { :root { filter: contrast(0.3846153846153846) brightness(4.5); } }
</style></svg>